<svg xmlns="http://www.w3.org/2000/svg" xmlns:xlink="http://www.w3.org/1999/xlink" version="1.1" x="0px" y="0px" viewBox="0 0 100 125" enable-background="new 0 0 100 100" xml:space="preserve"><path fill="#000000" d="M70.885,64.408c-8.142-1.879-15.72-3.523-12.048-10.441c11.17-21.062,2.961-32.326-8.836-32.326  c-12.03,0-20.037,11.697-8.836,32.326c3.779,6.959-4.082,8.604-12.049,10.441c-6.583,1.518-7.431,4.617-7.515,9.867  c-0.034,2.254,1.832,4.084,4.087,4.084h48.623c2.256,0,4.123-1.83,4.088-4.084C78.316,69.025,77.469,65.926,70.885,64.408z"/><g><path fill="#000000" d="M20.348,66.281c1.548-2.4,4.116-3.944,8.08-4.857l0.498-0.115c0.867-0.199,1.719-0.396,2.541-0.596   c-3.168-1.181-4.955-2.905-3.145-6.317c8.496-16.02,2.252-24.587-6.721-24.587c-9.15,0-15.24,8.897-6.721,24.587   c2.875,5.293-3.104,6.544-9.164,7.941c-5.007,1.153-5.651,3.512-5.716,7.505c-0.026,1.715,1.394,3.106,3.108,3.106h15.47   C18.702,70.361,19.114,68.193,20.348,66.281z"/></g><g><path fill="#000000" d="M94.284,62.337c-6.192-1.429-11.956-2.679-9.164-7.941c8.496-16.02,2.253-24.587-6.72-24.587   c-9.15,0-15.24,8.897-6.721,24.587c1.853,3.412,0.026,5.144-3.129,6.319c0.872,0.212,1.776,0.421,2.7,0.634l0.321,0.074   c3.966,0.913,6.533,2.458,8.082,4.858c1.232,1.912,1.646,4.08,1.769,6.667h15.468c1.716,0,3.136-1.392,3.109-3.106   C99.937,65.849,99.292,63.49,94.284,62.337z"/></g><text x="0" y="115" fill="#000000" font-size="5px" font-weight="bold" font-family="'Helvetica Neue', Helvetica, Arial-Unicode, Arial, Sans-serif">Created by Stefan Parnarov</text><text x="0" y="120" fill="#000000" font-size="5px" font-weight="bold" font-family="'Helvetica Neue', Helvetica, Arial-Unicode, Arial, Sans-serif">from the Noun Project</text></svg>